<?xml version="1.0" encoding="utf-8" ?>
<svg xmlns="http://www.w3.org/2000/svg" xmlns:xlink="http://www.w3.org/1999/xlink" width="256" height="256">
	<path fill="#8ECAE6" transform="scale(0.5 0.5)" d="M199.624 115.282C200.086 103.88 198.75 94.5922 207.626 85.7142C218.592 74.7457 236.415 74.9178 247.25 85.8538C256.39 95.0803 254.833 103.353 254.842 115.282L288.047 115.282C288.031 103.953 287.355 94.5772 296.017 85.857C306.782 75.0197 324.733 74.8906 335.42 85.8329C343.69 94.3005 343.729 102.922 343.526 114.115L343.503 115.282L361.894 115.269C380.35 115.267 393.923 116.885 393.806 139.096L393.76 187.746L393.76 267.948C396.71 268.777 399.605 269.75 402.509 270.725C476.023 298.59 473.9 404.796 397.533 430.195C364.134 439.89 341.588 431.623 316.103 411.017C309.692 412.302 303.24 411.42 296.814 411.876L82.5532 411.898C79.56 411.904 76.4919 412.033 73.5215 411.63C53.4054 408.899 56.6426 385.335 56.6454 371.004L56.6412 187.746C56.3131 184.383 56.6124 180.97 56.621 177.597L56.6495 157.671C56.647 152.032 55.8594 139.193 56.7843 134.307C58.9776 122.723 68.41 116.153 79.8186 115.282C82.8751 114.939 86.3845 115.262 89.475 115.265L111.254 115.282C111.303 103.663 110.285 94.6133 119.361 85.6877C130.093 75.1334 148.035 74.5668 158.591 85.7131C166.808 94.3886 166.816 103.436 166.452 114.658L166.428 115.282L199.624 115.282ZM166.428 115.282L166.452 114.658C166.816 103.436 166.808 94.3886 158.591 85.7131C148.035 74.5668 130.093 75.1334 119.361 85.6877C110.285 94.6133 111.303 103.663 111.254 115.282L89.475 115.265C86.3845 115.262 82.8751 114.939 79.8186 115.282C68.41 116.153 58.9776 122.723 56.7843 134.307C55.8594 139.193 56.647 152.032 56.6495 157.671L56.621 177.597C56.6124 180.97 56.3131 184.383 56.6412 187.746L64.0843 187.746L111.254 187.746L393.76 187.746L393.806 139.096C393.923 116.885 380.35 115.267 361.894 115.269L343.503 115.282L343.526 114.115C343.729 102.922 343.69 94.3005 335.42 85.8329C324.733 74.8906 306.782 75.0197 296.017 85.857C287.355 94.5772 288.031 103.953 288.047 115.282L254.842 115.282C254.833 103.353 256.39 95.0803 247.25 85.8538C236.415 74.9178 218.592 74.7457 207.626 85.7142C198.75 94.5922 200.086 103.88 199.624 115.282L166.428 115.282ZM292.88 323.749C289.217 338.924 288.244 353.657 291.441 369.012C296.754 386.958 302.699 397.828 316.103 411.017C341.588 431.623 364.134 439.89 397.533 430.195C473.9 404.796 476.023 298.59 402.509 270.725C399.605 269.75 396.71 268.777 393.76 267.948C353.526 258.041 313.798 276.639 296.571 314.275C295.203 317.265 293.664 320.555 292.88 323.749Z"/>
	<path fill="#0B6084" transform="scale(0.5 0.5)" d="M199.624 115.282C200.086 103.88 198.75 94.5922 207.626 85.7142C218.592 74.7457 236.415 74.9178 247.25 85.8538C256.39 95.0803 254.833 103.353 254.842 115.282L288.047 115.282C288.031 103.953 287.355 94.5772 296.017 85.857C306.782 75.0197 324.733 74.8906 335.42 85.8329C343.69 94.3005 343.729 102.922 343.526 114.115L343.503 115.282L361.894 115.269C380.35 115.267 393.923 116.885 393.806 139.096L393.76 187.746L111.254 187.746L64.0843 187.746L56.6412 187.746C56.3131 184.383 56.6124 180.97 56.621 177.597L56.6495 157.671C56.647 152.032 55.8594 139.193 56.7843 134.307C58.9776 122.723 68.41 116.153 79.8186 115.282C82.8751 114.939 86.3845 115.262 89.475 115.265L111.254 115.282C111.303 103.663 110.285 94.6133 119.361 85.6877C130.093 75.1334 148.035 74.5668 158.591 85.7131C166.808 94.3886 166.816 103.436 166.452 114.658L166.428 115.282L199.624 115.282ZM325.994 115.282C325.912 109.818 327.838 102.45 324.017 98.1159C319.897 93.4413 312.974 93.1494 308.514 97.5189C304.309 101.638 305.282 109.824 305.292 115.282L325.994 115.282ZM237.66 115.282C237.674 109.583 238.951 100.887 234.286 96.6902C230.082 92.909 223.002 93.5698 219.376 97.8346C216.486 101.234 216.747 110.551 217.227 115.282L237.66 115.282ZM149.251 115.282C149.12 110.027 150.475 101.989 146.818 97.7902C142.902 93.2935 135.822 93.1936 131.662 97.3915C127.461 101.631 128.67 109.747 128.699 115.282L149.251 115.282Z"/>
	<path fill="#FB8500" transform="scale(0.5 0.5)" d="M288.047 115.282C288.031 103.953 287.355 94.5772 296.017 85.857C306.782 75.0197 324.733 74.8906 335.42 85.8329C343.69 94.3005 343.729 102.922 343.526 114.115L343.503 115.282L325.994 115.282C325.912 109.818 327.838 102.45 324.017 98.1159C319.897 93.4413 312.974 93.1494 308.514 97.5189C304.309 101.638 305.282 109.824 305.292 115.282C305.253 123.249 304.238 125.275 308.728 132.471C311.296 136.155 315.101 138.603 314.337 143.678C312.97 152.758 302.57 151.828 296.814 145.94C288.897 132.608 287.956 132.634 288.047 115.282Z"/>
	<path fill="#FB8500" transform="scale(0.5 0.5)" d="M111.254 115.282C111.303 103.663 110.285 94.6133 119.361 85.6877C130.093 75.1334 148.035 74.5668 158.591 85.7131C166.808 94.3886 166.816 103.436 166.452 114.658L166.428 115.282L149.251 115.282C149.12 110.027 150.475 101.989 146.818 97.7902C142.902 93.2935 135.822 93.1936 131.662 97.3915C127.461 101.631 128.67 109.747 128.699 115.282C128.683 120.523 128.592 125.778 128.699 131.018C130.849 134.766 135.059 140.434 133.723 144.992C132.359 149.642 126.844 152.522 122.265 150.963C117.621 149.382 115.294 142.423 113.265 138.304C111.009 130.56 111.236 123.241 111.254 115.282Z"/>
	<path fill="#FB8500" transform="scale(0.5 0.5)" d="M199.624 115.282C200.086 103.88 198.75 94.5922 207.626 85.7142C218.592 74.7457 236.415 74.9178 247.25 85.8538C256.39 95.0803 254.833 103.353 254.842 115.282L237.66 115.282C237.674 109.583 238.951 100.887 234.286 96.6902C230.082 92.909 223.002 93.5698 219.376 97.8346C216.486 101.234 216.747 110.551 217.227 115.282C217.223 118.446 216.623 128.64 217.227 131.018C219.351 135.728 224.332 140.201 222.124 145.754C217.939 156.278 208.795 149.989 204.175 143.641C199.12 129.68 199.555 131.591 199.624 115.282Z"/>
	<path fill="#8ECAE6" transform="scale(0.5 0.5)" d="M308.728 132.471C331.198 123.422 352.657 142.694 343.167 164.434C330.897 192.539 287.192 174.51 296.814 145.94C302.57 151.828 312.97 152.758 314.337 143.678C315.101 138.603 311.296 136.155 308.728 132.471Z"/>
	<path fill="#8ECAE6" transform="scale(0.5 0.5)" d="M217.227 131.018C225.746 130.259 233.457 129.931 240.4 135.802C250.777 144.578 253.075 159.568 243.991 170.181C226.138 191.041 192.401 170.129 204.175 143.641C208.795 149.989 217.939 156.278 222.124 145.754C224.332 140.201 219.351 135.728 217.227 131.018Z"/>
	<path fill="#8ECAE6" transform="scale(0.5 0.5)" d="M128.699 131.018C152.567 132.261 163.009 157.713 146.116 172.772C124.662 191.896 94.0103 160.941 113.265 138.304C115.294 142.423 117.621 149.382 122.265 150.963C126.844 152.522 132.359 149.642 133.723 144.992C135.059 140.434 130.849 134.766 128.699 131.018Z"/>
	<path fill="#023047" transform="scale(0.5 0.5)" d="M56.6412 187.746C56.3131 184.383 56.6124 180.97 56.621 177.597L56.6495 157.671C56.647 152.032 55.8594 139.193 56.7843 134.307C58.9776 122.723 68.41 116.153 79.8186 115.282L79.6302 115.439C77.8507 116.891 75.8477 118.056 73.9983 119.417C61.8966 128.324 64.0688 142.525 64.0699 155.781L64.0843 187.746L56.6412 187.746Z"/>
	<path fill="#219EBC" transform="scale(0.5 0.5)" d="M56.6412 187.746L64.0843 187.746L111.254 187.746C112.347 197.194 116.058 212.445 116.359 220.144C117.816 219.978 121.257 219.121 122.439 220.144C128.129 220.137 145.542 218.04 146.693 224.159C147.806 230.077 147.135 247.881 146.971 254.376C146.775 262.102 143.38 262.121 136.465 261.947L135.543 262.362C135.904 267.177 138.183 272.619 138.529 277.748C151.332 277.957 146.977 289.768 146.984 300.792C146.989 308.392 149.998 319.773 140.139 320.262C139.379 320.392 138.578 320.471 137.862 320.76C138.255 324.796 141.753 331.169 143.731 334.729C145.305 335.97 146.393 337.039 146.978 339.035C150.767 340.823 157.739 349.134 162.547 352.117L162.511 364.727C162.472 380.898 167.62 377.226 181.131 377.25C190.285 377.266 199.595 377.648 208.728 377.194C219.1 376.678 216.904 368.918 217.227 361.112C217.325 362.072 217.353 362.921 217.227 363.879C219.63 364.979 224.648 368.518 226.117 369.012L226.117 369.012C228.283 369.408 231.077 369.051 233.304 369.032L280.072 369.015C283.035 369.018 288.906 369.515 291.441 369.012C296.754 386.958 302.699 397.828 316.103 411.017C309.692 412.302 303.24 411.42 296.814 411.876L82.5532 411.898C79.56 411.904 76.4919 412.033 73.5215 411.63C53.4054 408.899 56.6426 385.335 56.6454 371.004L56.6412 187.746Z"/>
	<path fill="#023047" transform="scale(0.5 0.5)" d="M146.978 339.035C146.664 348.845 147.959 361.78 146.963 370.989C146.461 375.625 144.056 377.2 139.39 377.298C130.744 377.481 122.067 377.217 113.416 377.251C105.33 377.284 92.13 380.735 92.0213 368.792L92.0182 350.819C92.0545 331.132 94.16 334.705 111.812 334.714L143.731 334.729C145.305 335.97 146.393 337.039 146.978 339.035Z"/>
	<path fill="#023047" transform="scale(0.5 0.5)" d="M140.139 320.262C130.49 320.118 120.815 320.26 111.163 320.271C103.333 320.279 92.2496 323.121 92.0065 312.024C91.8527 305.004 91.3095 289.8 92.3034 283.375C93.5525 275.298 103.564 277.73 109.385 277.736L138.529 277.748C151.332 277.957 146.977 289.768 146.984 300.792C146.989 308.392 149.998 319.773 140.139 320.262Z"/>
	<path fill="#FFB703" transform="scale(0.5 0.5)" d="M122.439 220.144C128.129 220.137 145.542 218.04 146.693 224.159C147.806 230.077 147.135 247.881 146.971 254.376C146.775 262.102 143.38 262.121 136.465 261.947L111.315 261.955C104.703 261.963 92.6038 264.484 92.1044 254.76C91.8113 249.052 91.3041 229.502 92.3525 224.365C93.5151 218.668 101.518 220.108 105.728 220.117L122.439 220.144Z"/>
	<path fill="#CFCFCE" transform="scale(0.5 0.5)" d="M291.441 369.012C296.754 386.958 302.699 397.828 316.103 411.017C309.692 412.302 303.24 411.42 296.814 411.876C295.712 410.897 294.03 410.191 292.748 409.439C276.553 399.929 260.007 391.063 243.927 381.337L232.82 374.507C230.65 373.16 226.782 371.712 226.117 369.012C228.283 369.408 231.077 369.051 233.304 369.032L280.072 369.015C283.035 369.018 288.906 369.515 291.441 369.012Z"/>
	<path fill="#FB8500" transform="scale(0.5 0.5)" d="M292.88 323.749C293.664 320.555 295.203 317.265 296.571 314.275C313.798 276.639 353.526 258.041 393.76 267.948C396.71 268.777 399.605 269.75 402.509 270.725C476.023 298.59 473.9 404.796 397.533 430.195C364.134 439.89 341.588 431.623 316.103 411.017C302.699 397.828 296.754 386.958 291.441 369.012C288.244 353.657 289.217 338.924 292.88 323.749ZM365.986 300.265C362.88 306.897 359.829 313.13 357.833 320.227C356.52 324.892 356.229 330.361 354.256 334.729C358.863 340.092 365.084 346.31 370.233 351.264C376.989 344.294 383.84 337.438 390.731 330.602C396.402 324.976 404.188 314.478 412.389 323.373C419.448 331.029 409.217 338.742 404.219 343.725L385.816 361.795C370.868 376.568 372.056 379.851 356.541 364.751C355.331 374.054 360.275 385.618 364.042 393.902L364.042 393.902C368.352 393.581 372.917 393.891 377.251 393.893L404.166 393.91C409.843 393.929 417.963 395.606 422.515 391.429C427.444 386.907 425.734 371.807 425.737 365.272L425.733 317.818C425.727 296.167 420.137 300.246 401.533 300.254L365.986 300.265L365.986 300.265Z"/>
	<path fill="#023047" transform="scale(0.5 0.5)" d="M370.233 351.264C376.989 344.294 383.84 337.438 390.731 330.602C396.402 324.976 404.188 314.478 412.389 323.373C419.448 331.029 409.217 338.742 404.219 343.725L385.816 361.795C370.868 376.568 372.056 379.851 356.541 364.751C353.32 361.779 341.73 350.899 340.189 347.74C335.818 338.783 345.045 331.275 354.256 334.729C358.863 340.092 365.084 346.31 370.233 351.264Z"/>
	<path fill="#FFB703" transform="scale(0.5 0.5)" d="M402.509 270.725C476.023 298.59 473.9 404.796 397.533 430.195C383.734 416.457 375.401 414.383 364.042 393.902C368.352 393.581 372.917 393.891 377.251 393.893L404.166 393.91C409.843 393.929 417.963 395.606 422.515 391.429C427.444 386.907 425.734 371.807 425.737 365.272L425.733 317.818C425.727 296.167 420.137 300.246 401.533 300.254L365.986 300.265C371.383 290.283 380.929 280.553 391.171 275.733C394.876 273.989 399.199 273.229 402.509 270.725Z"/>
	<path fill="#CFCFCE" transform="scale(0.5 0.5)" d="M364.042 393.902L344.724 393.918C327.361 393.916 326.004 393.866 325.992 377.608L326.004 311.765C326.152 297.404 332.391 300.217 344.323 300.248C351.539 300.266 358.773 300.12 365.986 300.265C362.88 306.897 359.829 313.13 357.833 320.227C356.52 324.892 356.229 330.361 354.256 334.729C345.045 331.275 335.818 338.783 340.189 347.74C341.73 350.899 353.32 361.779 356.541 364.751C355.331 374.054 360.275 385.618 364.042 393.902Z"/>
	<path fill="#023047" transform="scale(0.5 0.5)" d="M162.547 352.117C162.386 331.042 163.866 334.738 183.015 334.722C192.176 334.714 201.541 334.327 210.674 334.753C218.176 335.103 217.287 342.301 217.272 347.694L217.227 361.112C216.904 368.918 219.1 376.678 208.728 377.194C199.595 377.648 190.285 377.266 181.131 377.25C167.62 377.226 162.472 380.898 162.511 364.727L162.547 352.117Z"/>
	<path fill="#FEFEFE" transform="scale(0.5 0.5)" d="M226.117 369.012C228.13 363.404 275.982 335.082 283.472 330.099C286.51 328.077 290.413 326.459 292.88 323.749C289.217 338.924 288.244 353.657 291.441 369.012C288.906 369.515 283.035 369.018 280.072 369.015L233.304 369.032C231.077 369.051 228.283 369.408 226.117 369.012L226.117 369.012Z"/>
	<path fill="#023047" transform="scale(0.5 0.5)" d="M237.66 277.748C246.413 277.415 255.304 277.768 264.075 277.771C270.361 277.774 286.55 274.676 287.331 283.491C287.647 287.058 287.869 313.278 287.134 315.54C286.402 317.79 284.43 319.282 282.379 320.262C273.84 321.52 248.648 320.557 239.708 320.238C229.462 319.873 232.302 307.956 232.269 300.941C232.233 293.103 229.381 280.958 237.66 277.748Z"/>
	<path fill="#023047" transform="scale(0.5 0.5)" d="M167.656 277.748C176.091 277.533 184.584 277.767 193.027 277.769C198.91 277.771 214.001 275.432 216.768 281.463C217.739 283.58 217.49 314.542 216.613 316.767C215.871 318.65 213.99 319.543 212.243 320.262C203.813 320.452 195.35 320.237 186.916 320.246C181.688 320.251 164.831 322.505 162.863 316.469C162.129 314.216 162.387 287.566 162.667 283.763C162.914 280.395 164.27 278.67 167.656 277.748Z"/>
	<path fill="#023047" transform="scale(0.5 0.5)" d="M273.592 220.144C281.079 219.93 287.163 218.691 287.431 228.035C287.605 234.144 287.49 240.289 287.49 246.402C287.492 264.431 286.046 261.953 269.373 261.956L245.875 261.947C228.507 262.426 232.216 257.297 232.223 241.306C232.232 221.436 229.017 220.137 250.452 220.133L273.592 220.144Z"/>
	<path fill="#023047" transform="scale(0.5 0.5)" d="M171.47 220.144L199.292 220.15C206.106 220.155 216.603 217.515 217.2 227.184C217.593 233.555 217.887 250.027 217.035 256.131C216.326 261.216 213.054 261.837 208.383 261.947L182.068 261.959C175.222 261.958 163.179 264.621 162.637 255.44C162.238 248.691 161.833 232.229 162.727 225.702C163.422 220.634 166.92 220.23 171.47 220.144Z"/>
	<path fill="#023047" transform="scale(0.5 0.5)" d="M308.728 220.144L335.94 220.132C356.947 220.129 356.405 217.528 356.498 239.804C356.524 246.048 359.449 260.194 350.966 261.947C342.555 262.083 334.131 261.918 325.718 261.932C320.2 261.941 304.736 264.413 302.902 257.149C302.24 254.527 302.366 229.712 302.733 225.989C303.077 222.507 305.49 220.968 308.728 220.144Z"/>
</svg>
